<svg xmlns="http://www.w3.org/2000/svg" viewBox="0 0 512.007 512.007"><path d="M477.994 124.391a141.454 141.454 0 00-51.016-73.371c-48.142-37.762-93.15-53.416-145.8-50.725a571.88 571.88 0 00-82.542 11.792c-38.5 7.75-66.458 21.283-85.492 41.375a161.824 161.824 0 00-34.234 55.795 225.06 225.06 0 00-7.717 27.783l-.717 3.088a108.02 108.02 0 01-7.233 19.258c-1.775 3.958-3.541 7.921-5.058 11.95a29.081 29.081 0 00-2.3 14.362 32.558 32.558 0 0012.45 19.012c4.183 3.833 6.933 6.525 6.958 8.975a14.624 14.624 0 01-1.492 3.642 330.21 330.21 0 01-37.35 60.758c-6.125 7.479-12.55 16.204-11.25 25.087a26.434 26.434 0 0012.367 15.913 62.91 62.91 0 008.9 5.163c3.683 1.875 9.85 5.021 10.275 7.267a14.505 14.505 0 01-.934 8.558c-1.267 2.671-2.583 4.979-3.717 6.983-3.133 5.542-8.383 14.817-.467 21.454 1.842 1.629 4.992 4.105 7.875 6.308a21.52 21.52 0 00-2.75 12.358 12.241 12.241 0 005.025 8.296c1.908 1.354 3.95 2.533 5.975 3.692 5.017 2.859 6.975 4.192 7.65 6.854a24.07 24.07 0 01-.925 10.346c-.492 2.237-.975 4.475-1.275 6.708a49.818 49.818 0 002.859 22.929c4.428 16.203 20.758 26.112 37.175 22.558a696.675 696.675 0 0071.991-21.529c19.183 11.329 31.3 45.617 34.458 58.475a8.55 8.55 0 008.292 6.5h215.75a8.536 8.536 0 008.159-11.029 59.045 59.045 0 00-9.609-16.583 66.021 66.021 0 01-6.15-9.388 168.296 168.296 0 01-9.642-24.408 282.878 282.878 0 01-10.058-50.462 144.284 144.284 0 0111.158-74.908 191.645 191.645 0 0123.167-36.563c5.158-6.938 10.483-14.112 15.283-21.679a131.226 131.226 0 0020.883-70.133 255.3 255.3 0 00-8.922-72.461zm-8.142 72.22a114.483 114.483 0 01-18.242 61.246c-4.458 7.025-9.591 13.942-14.558 20.634a208.067 208.067 0 00-25.108 39.908 161.325 161.325 0 00-12.459 83.788 299.356 299.356 0 0010.692 53.45 185.9 185.9 0 0010.583 26.808 79.886 79.886 0 007.742 12.025c.117.154.233.313.341.471H234.436a136.205 136.205 0 00-30.083-54.521c2.233-.779 4.35-1.521 6.317-2.213 6.391-2.237 11.208-3.929 13.633-4.692 36.583-11.483 54.883-28.108 54.383-49.417a8.536 8.536 0 00-17.066.4c.208 8.792-6.983 21.608-42.442 32.738-2.517.796-7.525 2.542-14.15 4.867a3024.017 3024.017 0 01-21.892 7.596l-.05.017a709.391 709.391 0 01-73.308 22.133c-7.993 1.551-15.776-3.511-17.6-11.446a33.05 33.05 0 01-2.058-15.063c.233-1.766.633-3.533 1.025-5.3a37.764 37.764 0 00.792-18.229 28.168 28.168 0 00-15.725-17.471c-.608-.346-1.225-.696-1.825-1.05a31.278 31.278 0 013.267-5.287 8.526 8.526 0 00-1.641-12.122c-2.05-1.513-6.925-5.167-10.433-7.967.433-.796.925-1.667 1.375-2.454 1.308-2.317 2.808-4.987 4.267-8.05a31.554 31.554 0 002.292-19.088c-1.992-10.462-11.992-15.558-19.292-19.283a49.46 49.46 0 01-7.092-4.108 43.732 43.732 0 01-5.025-4.071c.025-1.283 1.358-4.404 7.925-12.417a344.152 344.152 0 0038.992-63.392 24.643 24.643 0 003.342-11.571 29.754 29.754 0 00-12.5-21.358c-3.45-3.158-6.708-6.142-7.075-8.758a14.868 14.868 0 011.367-6c1.4-3.721 3.042-7.362 4.667-11.008a122.225 122.225 0 008.275-22.359l.725-3.112a208.274 208.274 0 017.1-25.713 144.993 144.993 0 0130.608-49.975c16.533-17.45 41.55-29.35 76.475-36.379a557.038 557.038 0 0180.05-11.483c48.3-2.429 89.733 12.071 134.409 47.121a123.168 123.168 0 0145.117 64.6 238.425 238.425 0 018.27 67.555z"/><path d="M433.444 138.011h-17.692a97.627 97.627 0 00-7.975-19.233l12.517-12.517a8.534 8.534 0 00.967-10.917 121.495 121.495 0 00-30.2-30.2 8.517 8.517 0 00-10.917.962l-12.517 12.517a97.584 97.584 0 00-19.242-7.975V52.953a8.539 8.539 0 00-7.033-8.4 122.975 122.975 0 00-42.717 0 8.538 8.538 0 00-7.033 8.4v17.696a97.584 97.584 0 00-19.242 7.975l-12.517-12.517a8.517 8.517 0 00-10.917-.962 121.478 121.478 0 00-30.2 30.2 8.533 8.533 0 00.967 10.917l12.517 12.517a97.627 97.627 0 00-7.975 19.233h-17.691a8.531 8.531 0 00-8.4 7.033 122.104 122.104 0 000 42.725 8.531 8.531 0 008.4 7.033h17.692a97.627 97.627 0 007.975 19.233l-12.517 12.517a8.534 8.534 0 00-.967 10.917 121.478 121.478 0 0030.2 30.2 8.546 8.546 0 0010.917-.962l12.517-12.517a97.584 97.584 0 0019.242 7.975v17.696a8.539 8.539 0 007.033 8.4 122.298 122.298 0 0042.717 0 8.538 8.538 0 007.033-8.4v-17.696a97.584 97.584 0 0019.242-7.975l12.517 12.517a8.542 8.542 0 0010.917.962 121.478 121.478 0 0030.2-30.2 8.533 8.533 0 00-.967-10.917l-12.517-12.517a97.652 97.652 0 007.975-19.233h17.692a8.531 8.531 0 008.4-7.033 122.104 122.104 0 000-42.725 8.535 8.535 0 00-8.401-7.034zm-7.391 39.726h-16.918a8.529 8.529 0 00-8.333 6.7 80.661 80.661 0 01-10.917 26.338 8.52 8.52 0 001.142 10.646l11.975 11.975a104.697 104.697 0 01-16.017 16.017l-11.975-11.971a8.533 8.533 0 00-10.642-1.15 80.584 80.584 0 01-26.35 10.925 8.533 8.533 0 00-6.7 8.333v16.917c-7.528.808-15.122.808-22.65 0V255.55a8.532 8.532 0 00-6.7-8.333 80.584 80.584 0 01-26.35-10.925 8.51 8.51 0 00-10.642 1.15l-11.975 11.971a104.697 104.697 0 01-16.017-16.017l11.975-11.975a8.52 8.52 0 001.142-10.646 80.652 80.652 0 01-10.917-26.338 8.53 8.53 0 00-8.333-6.7h-16.916a105.809 105.809 0 010-22.658h16.917a8.529 8.529 0 008.333-6.7 80.661 80.661 0 0110.917-26.338 8.52 8.52 0 00-1.142-10.646L236.985 99.42a104.697 104.697 0 0116.017-16.017l11.975 11.971a8.513 8.513 0 0010.642 1.15 80.584 80.584 0 0126.35-10.925 8.533 8.533 0 006.7-8.333V60.349a106.124 106.124 0 0122.65 0v16.917a8.532 8.532 0 006.7 8.333 80.584 80.584 0 0126.35 10.925 8.536 8.536 0 0010.642-1.15l11.975-11.971a104.697 104.697 0 0116.017 16.017l-11.975 11.975a8.52 8.52 0 00-1.142 10.646 80.652 80.652 0 0110.917 26.338 8.53 8.53 0 008.333 6.7h16.917c.811 7.53.811 15.127 0 22.658zM204.794 247.474h-9.746a33.683 33.683 0 00-3.625-8.698l6.904-6.906a8.533 8.533 0 00-12.067-12.067l-6.905 6.906a33.795 33.795 0 00-8.695-3.624v-9.745a8.533 8.533 0 00-17.066 0v9.745a33.766 33.766 0 00-8.695 3.624l-6.904-6.906a8.53 8.53 0 00-14.275 3.825 8.535 8.535 0 002.208 8.242l6.904 6.906a33.683 33.683 0 00-3.625 8.698h-9.746c-4.713 0-8.533 3.82-8.533 8.533s3.82 8.533 8.533 8.533h9.746a33.683 33.683 0 003.625 8.698l-6.904 6.906a8.534 8.534 0 0012.067 12.067l6.904-6.906a33.787 33.787 0 008.696 3.624v9.745c0 4.713 3.82 8.533 8.533 8.533s8.533-3.82 8.533-8.533v-9.745a33.766 33.766 0 008.695-3.624l6.904 6.906a8.533 8.533 0 0012.067-12.067l-6.904-6.906a33.683 33.683 0 003.625-8.698h9.746c4.713 0 8.533-3.82 8.533-8.533s-3.82-8.533-8.533-8.533zm-42.667 25.6c-9.426 0-17.067-7.641-17.067-17.067s7.641-17.067 17.067-17.067 17.067 7.641 17.067 17.067c-.011 9.421-7.646 17.056-17.067 17.067zM117.457 162.141a28.447 28.447 0 002.051 4.954l-4.615 4.617a8.534 8.534 0 0012.067 12.067l4.628-4.63a28.727 28.727 0 004.938 2.046v6.547c0 4.713 3.82 8.533 8.533 8.533s8.533-3.82 8.533-8.533v-6.547a28.569 28.569 0 004.938-2.046l4.629 4.631a8.533 8.533 0 0012.067-12.067l-4.616-4.618a28.364 28.364 0 002.052-4.953h6.53a8.533 8.533 0 000-17.066h-6.53a28.364 28.364 0 00-2.052-4.953l4.616-4.618a8.532 8.532 0 10-12.067-12.067l-4.629 4.631a28.64 28.64 0 00-4.938-2.044v-6.549c0-4.713-3.82-8.533-8.533-8.533s-8.533 3.82-8.533 8.533v6.55a28.64 28.64 0 00-4.938 2.044l-4.629-4.632a8.533 8.533 0 00-12.067 12.067l4.616 4.618a28.364 28.364 0 00-2.052 4.953h-6.53a8.533 8.533 0 000 17.066h6.531zm24.508-20.08a11.95 11.95 0 116.19 23.086 11.95 11.95 0 01-6.19-23.086z"/><path d="M319.994 110.941c-30.633 0-55.467 24.833-55.467 55.467.035 30.619 24.848 55.431 55.467 55.467 30.633 0 55.467-24.833 55.467-55.467s-24.834-55.467-55.467-55.467zm0 93.866c-21.208 0-38.4-17.192-38.4-38.4.023-21.198 17.202-38.377 38.4-38.4 21.208 0 38.4 17.192 38.4 38.4s-17.192 38.4-38.4 38.4z"/></svg>